<?xml version="1.0" encoding="UTF-8" standalone="no"?>
<!DOCTYPE svg PUBLIC "-//W3C//DTD SVG 1.1//EN" "http://www.w3.org/Graphics/SVG/1.1/DTD/svg11.dtd">
<svg width="100%" height="100%" viewBox="0 0 920 920" version="1.1" xmlns="http://www.w3.org/2000/svg" xmlns:xlink="http://www.w3.org/1999/xlink" xml:space="preserve" xmlns:serif="http://www.serif.com/" style="fill-rule:evenodd;clip-rule:evenodd;stroke-linejoin:round;stroke-miterlimit:1.41421;">
    <g transform="matrix(1.56159,0.0305554,-0.0253718,1.29668,-202.092,-218.778)">
        <path d="M472.027,347.527C472.321,342.27 475.098,323.008 483.162,298.813C498.973,251.378 525.412,187.105 525.412,187.105C525.412,187.105 410.274,206.871 353.718,232.149C330.662,308.327 318.642,384.265 315.984,460L351.348,446.226C350.761,516.782 359.463,582.814 377.568,649.121L408.017,635.261C419.378,711.703 453.689,781.842 489.45,851.583C477.737,749.504 471.727,646.314 489.12,540.164L460,555.952C457.026,486.072 476.707,413.149 513.179,337.772L472.027,347.527Z" style="fill:rgb(237,119,32);"/>
        <path d="M526.148,184.151L527.112,184.798L527.76,185.875L527.972,187.18L527.708,188.471L527.408,189.202L527.043,190.094L526.544,191.318L525.917,192.859L525.558,193.743L525.169,194.701L524.752,195.732L524.307,196.832L523.835,198L523.338,199.235L522.815,200.533L522.268,201.895L521.697,203.317L521.104,204.798L520.489,206.336L519.853,207.929L519.198,209.576L518.523,211.273L517.829,213.021L517.119,214.816L516.391,216.656L515.648,218.541L514.889,220.468L514.117,222.435L513.332,224.44L512.534,226.482L511.724,228.56L511.315,229.61L510.904,230.669L510.49,231.735L510.074,232.809L509.655,233.89L509.235,234.978L508.812,236.074L508.387,237.175L507.961,238.283L507.533,239.397L507.103,240.517L506.672,241.643L506.239,242.774L505.805,243.91L505.37,245.051L504.934,246.197L504.497,247.347L504.059,248.502L503.62,249.66L503.18,250.823L502.74,251.989L502.3,253.158L501.859,254.33L501.418,255.505L500.977,256.683L500.536,257.863L500.095,259.045L499.654,260.23L499.213,261.416L498.773,262.603L498.333,263.791L497.894,264.981L497.456,266.171L497.018,267.362L496.582,268.553L496.146,269.744L495.712,270.935L495.279,272.126L494.847,273.315L494.417,274.504L493.988,275.692L493.561,276.879L493.136,278.064L492.712,279.247L492.291,280.428L491.872,281.606L491.455,282.783L491.04,283.956L490.628,285.126L490.218,286.294L489.811,287.457L489.407,288.617L489.006,289.773L488.607,290.925L488.212,292.073L487.82,293.215L487.431,294.353L487.045,295.486L486.663,296.614L486.285,297.736L485.91,298.852L485.539,299.961L485.353,300.521L485.17,301.078L484.988,301.634L484.808,302.187L484.629,302.739L484.453,303.289L484.279,303.837L484.106,304.383L483.936,304.927L483.767,305.469L483.6,306.009L483.434,306.547L483.271,307.082L483.109,307.616L482.95,308.148L482.792,308.677L482.636,309.204L482.481,309.729L482.329,310.251L482.178,310.772L482.029,311.29L481.881,311.805L481.736,312.319L481.592,312.83L481.45,313.338L481.309,313.844L481.17,314.348L481.033,314.849L480.898,315.348L480.764,315.844L480.632,316.337L480.502,316.828L480.373,317.316L480.246,317.802L480.121,318.285L479.997,318.765L479.875,319.243L479.755,319.718L479.636,320.19L479.519,320.659L479.403,321.125L479.289,321.589L479.177,322.05L479.066,322.507L478.957,322.962L478.849,323.414L478.743,323.863L478.638,324.308L478.535,324.751L478.433,325.191L478.333,325.628L478.235,326.061L478.138,326.491L478.042,326.919L477.948,327.342L477.856,327.763L477.765,328.181L477.675,328.595L477.587,329.006L477.5,329.413L477.415,329.817L477.331,330.218L477.249,330.616L477.168,331.01L477.088,331.4L477.01,331.787L476.933,332.17L476.858,332.55L476.784,332.927L476.711,333.299L476.64,333.669L476.57,334.034L476.501,334.396L476.434,334.754L476.368,335.108L476.304,335.458L476.241,335.805L476.179,336.148L476.118,336.487L476.059,336.823L476.001,337.154L475.944,337.481L475.888,337.804L475.834,338.124L475.781,338.439L475.73,338.751L475.679,339.058L475.63,339.361L475.582,339.66L475.535,339.955L475.489,340.246L475.445,340.532L475.402,340.814L475.36,341.092L475.319,341.366L475.279,341.635L475.241,341.9L475.203,342.161L475.167,342.416L475.132,342.668L475.098,342.915L475.066,343.158L475.034,343.396L475.003,343.629L474.997,343.679L512.685,334.746L513.657,334.742L514.561,335.175L515.265,335.982L515.669,337.047L515.714,338.217L515.393,339.323L514.967,340.204L514.544,341.083L514.122,341.962L513.702,342.841L513.284,343.719L512.867,344.597L512.451,345.475L512.037,346.352L511.625,347.23L511.214,348.107L510.805,348.984L510.397,349.861L509.991,350.737L509.586,351.613L509.183,352.489L508.782,353.365L508.382,354.24L507.984,355.115L507.587,355.99L507.192,356.865L506.798,357.739L506.407,358.613L506.016,359.487L505.627,360.361L505.24,361.235L504.855,362.108L504.471,362.981L504.088,363.853L503.707,364.726L503.328,365.598L502.95,366.47L502.574,367.342L502.2,368.213L501.827,369.084L501.456,369.955L501.086,370.826L500.718,371.696L500.352,372.566L499.987,373.436L499.624,374.306L499.263,375.176L498.903,376.045L498.545,376.914L498.188,377.782L497.833,378.651L497.48,379.519L497.128,380.387L496.778,381.254L496.429,382.122L496.082,382.989L495.737,383.856L495.394,384.722L495.052,385.589L494.712,386.455L494.373,387.321L494.036,388.186L493.701,389.052L493.367,389.917L493.035,390.781L492.705,391.646L492.376,392.51L492.049,393.374L491.724,394.238L491.4,395.102L491.078,395.965L490.758,396.828L490.439,397.691L490.122,398.553L489.807,399.415L489.494,400.277L489.182,401.139L488.871,402L488.563,402.861L488.256,403.722L487.951,404.583L487.647,405.443L487.346,406.303L487.046,407.163L486.747,408.023L486.451,408.882L486.156,409.741L485.862,410.6L485.571,411.459L485.281,412.317L484.993,413.175L484.706,414.033L484.422,414.89L484.139,415.747L483.857,416.604L483.578,417.461L483.3,418.317L483.024,419.173L482.749,420.029L482.477,420.885L482.206,421.74L481.937,422.595L481.669,423.45L481.404,424.304L481.14,425.159L480.877,426.013L480.617,426.866L480.358,427.72L480.101,428.573L479.846,429.426L479.592,430.279L479.341,431.131L479.091,431.983L478.842,432.835L478.596,433.686L478.351,434.537L478.108,435.389L477.867,436.239L477.627,437.09L477.39,437.94L477.154,438.79L476.92,439.639L476.687,440.489L476.457,441.338L476.228,442.187L476.001,443.035L475.776,443.883L475.552,444.731L475.331,445.579L475.111,446.427L474.893,447.274L474.677,448.121L474.462,448.967L474.249,449.813L474.039,450.659L473.829,451.505L473.622,452.351L473.417,453.196L473.213,454.041L473.011,454.886L472.811,455.73L472.613,456.574L472.416,457.418L472.222,458.261L472.029,459.105L471.838,459.948L471.649,460.79L471.462,461.633L471.276,462.475L471.092,463.317L470.91,464.158L470.73,465L470.552,465.841L470.376,466.681L470.201,467.522L470.029,468.362L469.858,469.202L469.689,470.041L469.522,470.881L469.357,471.72L469.193,472.559L469.031,473.397L468.872,474.235L468.714,475.073L468.558,475.911L468.404,476.748L468.251,477.585L468.101,478.422L467.952,479.259L467.806,480.095L467.661,480.931L467.518,481.766L467.377,482.602L467.238,483.437L467.1,484.272L466.965,485.106L466.831,485.94L466.699,486.774L466.57,487.608L466.442,488.441L466.316,489.274L466.192,490.107L466.069,490.94L465.949,491.772L465.83,492.604L465.714,493.435L465.599,494.267L465.486,495.098L465.376,495.929L465.267,496.759L465.16,497.589L465.054,498.419L464.951,499.249L464.85,500.078L464.751,500.907L464.653,501.736L464.557,502.565L464.464,503.393L464.372,504.221L464.282,505.048L464.194,505.876L464.109,506.703L464.025,507.529L463.942,508.356L463.862,509.182L463.784,510.009L463.746,510.421L463.708,510.834L463.671,511.246L463.634,511.659L463.597,512.071L463.561,512.484L463.526,512.896L463.491,513.308L463.456,513.721L463.422,514.133L463.389,514.545L463.356,514.957L463.323,515.369L463.291,515.781L463.26,516.193L463.229,516.605L463.198,517.016L463.168,517.428L463.138,517.839L463.109,518.251L463.081,518.662L463.052,519.073L463.025,519.485L462.998,519.896L462.971,520.307L462.945,520.718L462.919,521.129L462.894,521.54L462.869,521.951L462.845,522.361L462.821,522.772L462.798,523.183L462.775,523.593L462.753,524.004L462.731,524.414L462.71,524.824L462.689,525.234L462.669,525.645L462.649,526.055L462.63,526.465L462.611,526.875L462.593,527.285L462.575,527.694L462.558,528.104L462.541,528.514L462.525,528.923L462.509,529.333L462.494,529.742L462.479,530.152L462.465,530.561L462.451,530.97L462.438,531.379L462.425,531.788L462.412,532.197L462.401,532.606L462.389,533.015L462.378,533.424L462.368,533.833L462.358,534.241L462.349,534.65L462.34,535.058L462.332,535.467L462.324,535.875L462.317,536.283L462.31,536.691L462.303,537.1L462.298,537.507L462.292,537.915L462.287,538.323L462.283,538.731L462.279,539.139L462.276,539.547L462.273,539.954L462.271,540.362L462.269,540.769L462.268,541.177L462.267,541.584L462.267,541.991L462.267,542.398L462.267,542.805L462.269,543.213L462.27,543.62L462.273,544.026L462.275,544.433L462.279,544.84L462.282,545.246L462.287,545.653L462.291,546.06L462.297,546.466L462.302,546.872L462.309,547.279L462.315,547.685L462.323,548.091L462.33,548.497L462.339,548.903L462.347,549.309L462.357,549.715L462.367,550.121L462.377,550.526L462.388,550.932L462.397,551.27L488.069,537.352L489.158,537.08L490.239,537.39L491.11,538.223L491.606,539.421L491.633,540.76L491.532,541.38L491.431,541.999L491.331,542.618L491.231,543.237L491.132,543.855L491.034,544.474L490.936,545.093L490.838,545.711L490.741,546.33L490.645,546.948L490.549,547.566L490.454,548.185L490.359,548.803L490.265,549.421L490.171,550.039L490.078,550.657L489.985,551.275L489.893,551.893L489.801,552.511L489.71,553.129L489.619,553.746L489.529,554.364L489.439,554.981L489.35,555.599L489.261,556.216L489.173,556.834L489.086,557.451L488.999,558.068L488.912,558.685L488.826,559.302L488.741,559.919L488.655,560.537L488.571,561.153L488.487,561.77L488.403,562.387L488.32,563.004L488.238,563.621L488.156,564.237L488.074,564.854L487.993,565.47L487.913,566.087L487.833,566.703L487.753,567.319L487.674,567.936L487.596,568.552L487.518,569.168L487.44,569.784L487.363,570.4L487.287,571.016L487.211,571.632L487.135,572.248L487.06,572.863L486.986,573.479L486.912,574.094L486.765,575.326L486.62,576.557L486.478,577.787L486.337,579.018L486.198,580.248L486.061,581.478L485.926,582.707L485.793,583.937L485.662,585.166L485.533,586.395L485.405,587.624L485.28,588.852L485.156,590.08L485.035,591.308L484.915,592.536L484.797,593.764L484.681,594.991L484.566,596.218L484.454,597.445L484.344,598.672L484.235,599.898L484.128,601.124L484.023,602.35L483.92,603.576L483.818,604.801L483.719,606.027L483.621,607.252L483.525,608.477L483.43,609.701L483.338,610.926L483.247,612.15L483.158,613.374L483.071,614.598L482.986,615.821L482.902,617.045L482.82,618.268L482.74,619.491L482.661,620.713L482.585,621.936L482.51,623.158L482.436,624.38L482.365,625.602L482.295,626.823L482.227,628.045L482.16,629.266L482.095,630.487L482.032,631.708L481.971,632.929L481.911,634.149L481.852,635.369L481.796,636.589L481.741,637.809L481.688,639.028L481.636,640.248L481.586,641.467L481.538,642.686L481.491,643.905L481.446,645.123L481.402,646.342L481.36,647.56L481.32,648.778L481.281,649.996L481.243,651.213L481.208,652.431L481.174,653.648L481.141,654.865L481.11,656.081L481.081,657.298L481.053,658.515L481.026,659.731L481.001,660.947L480.978,662.163L480.956,663.378L480.936,664.594L480.917,665.809L480.899,667.024L480.883,668.239L480.869,669.454L480.856,670.668L480.844,671.883L480.834,673.097L480.826,674.311L480.819,675.525L480.813,676.738L480.809,677.952L480.806,679.165L480.805,680.378L480.805,681.591L480.806,682.804L480.809,684.016L480.813,685.229L480.819,686.441L480.826,687.653L480.834,688.865L480.844,690.077L480.855,691.288L480.867,692.5L480.881,693.711L480.896,694.922L480.913,696.133L480.931,697.343L480.95,698.554L480.97,699.764L480.992,700.974L481.015,702.184L481.04,703.394L481.065,704.604L481.092,705.813L481.121,707.023L481.15,708.232L481.181,709.441L481.213,710.65L481.247,711.859L481.281,713.067L481.317,714.276L481.354,715.484L481.393,716.692L481.432,717.9L481.473,719.108L481.515,720.315L481.558,721.523L481.603,722.73L481.648,723.937L481.695,725.144L481.743,726.351L481.792,727.558L481.842,728.764L481.894,729.97L481.947,731.177L482,732.383L482.055,733.589L482.112,734.795L482.169,736L482.227,737.206L482.287,738.411L482.347,739.616L482.409,740.821L482.472,742.026L482.536,743.231L482.601,744.436L482.667,745.64L482.734,746.845L482.802,748.049L482.871,749.253L482.942,750.457L483.013,751.661L483.086,752.864L483.159,754.068L483.234,755.271L483.309,756.474L483.386,757.678L483.463,758.881L483.542,760.083L483.622,761.286L483.702,762.489L483.784,763.691L483.866,764.893L483.95,766.096L484.034,767.298L484.12,768.5L484.206,769.701L484.294,770.903L484.382,772.105L484.471,773.306L484.561,774.508L484.653,775.709L484.745,776.91L484.838,778.111L484.931,779.312L485.026,780.512L485.122,781.713L485.218,782.913L485.316,784.114L485.414,785.314L485.513,786.514L485.613,787.714L485.714,788.914L485.816,790.113L485.919,791.313L486.022,792.513L486.126,793.712L486.231,794.911L486.337,796.11L486.444,797.309L486.552,798.508L486.66,799.707L486.769,800.906L486.879,802.105L486.99,803.303L487.101,804.502L487.213,805.7L487.326,806.898L487.44,808.096L487.555,809.294L487.67,810.492L487.786,811.69L487.903,812.887L488.02,814.085L488.138,815.282L488.257,816.48L488.377,817.677L488.497,818.874L488.618,820.071L488.74,821.268L488.862,822.465L488.985,823.661L489.109,824.858L489.233,826.055L489.358,827.251L489.484,828.448L489.61,829.644L489.737,830.84L489.865,832.036L489.993,833.232L490.122,834.428L490.251,835.624L490.381,836.819L490.512,838.015L490.643,839.211L490.775,840.406L490.907,841.601L491.04,842.797L491.174,843.992L491.308,845.187L491.443,846.382L491.578,847.577L491.714,848.772L491.85,849.966L491.987,851.162L491.93,852.353L491.501,853.429L490.766,854.229L489.833,854.633L488.843,854.58L487.944,854.078L487.271,853.203L486.432,851.568L485.595,849.932L484.757,848.296L483.921,846.66L483.085,845.023L482.25,843.386L481.416,841.749L480.583,840.111L479.751,838.473L478.919,836.835L478.089,835.196L477.26,833.557L476.432,831.917L475.606,830.276L474.781,828.636L473.957,826.994L473.135,825.353L472.314,823.71L471.495,822.068L470.678,820.424L469.862,818.78L469.048,817.135L468.236,815.491L467.83,814.667L467.425,813.844L467.021,813.021L466.617,812.198L466.214,811.374L465.811,810.551L465.408,809.727L465.007,808.903L464.605,808.078L464.205,807.254L463.804,806.43L463.405,805.605L463.006,804.78L462.607,803.955L462.209,803.129L461.812,802.304L461.415,801.478L461.019,800.652L460.623,799.826L460.229,799L459.834,798.173L459.441,797.347L459.048,796.52L458.655,795.693L458.264,794.865L457.873,794.038L457.482,793.21L457.093,792.382L456.704,791.554L456.315,790.725L455.928,789.897L455.541,789.068L455.155,788.239L454.77,787.409L454.385,786.58L454.001,785.75L453.618,784.92L453.236,784.089L452.854,783.259L452.473,782.428L452.093,781.597L451.714,780.766L451.335,779.934L450.958,779.102L450.581,778.27L450.205,777.438L449.829,776.606L449.455,775.773L449.082,774.94L448.709,774.106L448.337,773.273L447.966,772.439L447.596,771.605L447.227,770.77L446.859,769.935L446.491,769.1L446.125,768.265L445.759,767.43L445.395,766.594L445.031,765.758L444.668,764.921L444.306,764.084L443.946,763.247L443.586,762.41L443.227,761.572L442.869,760.734L442.512,759.896L442.156,759.058L441.801,758.219L441.447,757.38L441.094,756.54L440.742,755.7L440.391,754.86L440.041,754.02L439.692,753.179L439.345,752.338L438.998,751.497L438.652,750.655L438.308,749.813L437.964,748.97L437.622,748.128L437.281,747.285L436.94,746.441L436.601,745.597L436.264,744.753L435.927,743.909L435.591,743.064L435.257,742.219L434.923,741.374L434.591,740.528L434.26,739.682L433.93,738.835L433.602,737.988L433.274,737.141L432.948,736.293L432.623,735.445L432.299,734.597L431.977,733.748L431.655,732.899L431.335,732.049L431.016,731.199L430.699,730.349L430.382,729.498L430.067,728.647L429.754,727.796L429.441,726.944L429.13,726.092L428.82,725.239L428.512,724.386L428.204,723.533L427.898,722.679L427.594,721.825L427.29,720.97L426.989,720.115L426.688,719.26L426.389,718.404L426.091,717.548L425.795,716.691L425.5,715.834L425.206,714.976L424.914,714.118L424.623,713.26L424.334,712.401L424.046,711.542L423.759,710.682L423.474,709.822L423.191,708.962L422.908,708.101L422.628,707.239L422.349,706.377L422.071,705.515L421.795,704.652L421.52,703.789L421.247,702.925L420.975,702.061L420.705,701.197L420.436,700.332L420.169,699.466L419.904,698.6L419.64,697.734L419.377,696.867L419.116,696L418.857,695.132L418.599,694.264L418.343,693.395L418.089,692.526L417.836,691.656L417.584,690.786L417.335,689.915L417.087,689.044L416.84,688.172L416.596,687.3L416.353,686.427L416.111,685.554L415.872,684.681L415.634,683.806L415.397,682.932L415.163,682.057L414.93,681.181L414.698,680.305L414.469,679.428L414.241,678.551L414.015,677.673L413.791,676.795L413.568,675.916L413.347,675.037L413.128,674.157L412.911,673.277L412.696,672.396L412.482,671.515L412.27,670.633L412.06,669.751L411.852,668.868L411.645,667.984L411.441,667.1L411.238,666.216L411.037,665.331L410.838,664.445L410.641,663.559L410.446,662.673L410.349,662.229L410.252,661.785L410.156,661.341L410.061,660.897L409.966,660.453L409.871,660.008L409.777,659.564L409.683,659.12L409.59,658.675L409.497,658.23L409.405,657.785L409.313,657.34L409.222,656.895L409.132,656.449L409.041,656.004L408.951,655.558L408.862,655.112L408.773,654.666L408.685,654.22L408.597,653.774L408.51,653.328L408.423,652.881L408.337,652.434L408.251,651.988L408.165,651.541L408.081,651.094L407.996,650.646L407.912,650.199L407.829,649.751L407.746,649.304L407.664,648.856L407.582,648.408L407.5,647.96L407.419,647.511L407.339,647.063L407.259,646.614L407.18,646.166L407.101,645.717L407.022,645.268L406.945,644.819L406.867,644.369L406.79,643.92L406.714,643.471L406.638,643.021L406.563,642.571L406.488,642.121L406.414,641.671L406.34,641.22L406.267,640.77L406.194,640.319L406.122,639.868L406.056,639.451L378.473,652.006L377.459,652.202L376.463,651.903L375.644,651.156L375.134,650.082L374.922,649.303L374.71,648.523L374.499,647.742L374.289,646.962L374.08,646.182L373.872,645.401L373.664,644.621L373.457,643.84L373.252,643.06L373.047,642.279L372.843,641.499L372.639,640.718L372.437,639.938L372.236,639.158L372.035,638.377L371.835,637.597L371.636,636.816L371.438,636.036L371.241,635.255L371.045,634.475L370.85,633.694L370.655,632.914L370.461,632.133L370.268,631.353L370.076,630.572L369.885,629.792L369.695,629.011L369.506,628.23L369.317,627.45L369.129,626.669L368.943,625.888L368.757,625.107L368.572,624.327L368.387,623.546L368.204,622.765L368.022,621.984L367.84,621.203L367.659,620.422L367.479,619.641L367.3,618.86L367.122,618.079L366.945,617.298L366.768,616.516L366.593,615.735L366.418,614.954L366.244,614.172L366.071,613.391L365.899,612.609L365.728,611.828L365.557,611.046L365.388,610.264L365.219,609.483L365.051,608.701L364.884,607.919L364.718,607.137L364.553,606.355L364.388,605.573L364.225,604.79L364.062,604.008L363.9,603.226L363.739,602.443L363.579,601.661L363.42,600.878L363.262,600.095L363.104,599.312L362.948,598.53L362.792,597.747L362.637,596.963L362.483,596.18L362.33,595.397L362.177,594.614L362.026,593.83L361.875,593.047L361.725,592.263L361.577,591.479L361.429,590.695L361.281,589.911L361.135,589.127L360.99,588.343L360.845,587.558L360.701,586.774L360.559,585.989L360.417,585.205L360.275,584.42L360.135,583.635L359.996,582.85L359.857,582.065L359.72,581.279L359.583,580.494L359.447,579.708L359.312,578.923L359.177,578.137L359.044,577.351L358.911,576.565L358.78,575.779L358.649,574.992L358.519,574.206L358.39,573.419L358.262,572.632L358.134,571.845L358.008,571.058L357.882,570.271L357.758,569.483L357.634,568.696L357.511,567.908L357.388,567.12L357.267,566.332L357.147,565.544L357.027,564.756L356.908,563.967L356.79,563.178L356.673,562.389L356.557,561.6L356.442,560.811L356.327,560.022L356.214,559.232L356.101,558.443L355.989,557.653L355.878,556.863L355.768,556.072L355.659,555.282L355.55,554.491L355.443,553.7L355.336,552.909L355.23,552.118L355.125,551.327L355.021,550.535L354.918,549.743L354.816,548.951L354.714,548.159L354.613,547.367L354.514,546.574L354.415,545.782L354.316,544.989L354.219,544.195L354.123,543.402L354.027,542.608L353.933,541.815L353.839,541.021L353.746,540.226L353.654,539.432L353.563,538.637L353.472,537.842L353.383,537.047L353.294,536.252L353.206,535.456L353.119,534.661L353.033,533.865L352.948,533.068L352.864,532.272L352.78,531.475L352.698,530.678L352.616,529.881L352.535,529.084L352.455,528.286L352.376,527.488L352.297,526.69L352.22,525.892L352.143,525.093L352.067,524.294L351.993,523.495L351.919,522.696L351.845,521.896L351.773,521.096L351.702,520.296L351.631,519.496L351.561,518.695L351.492,517.894L351.424,517.093L351.357,516.291L351.291,515.49L351.225,514.688L351.161,513.885L351.097,513.083L351.034,512.28L350.972,511.477L350.911,510.674L350.851,509.87L350.791,509.066L350.733,508.262L350.675,507.458L350.618,506.653L350.562,505.848L350.507,505.043L350.453,504.237L350.399,503.431L350.346,502.625L350.295,501.818L350.244,501.012L350.194,500.205L350.145,499.397L350.096,498.589L350.049,497.781L350.002,496.973L349.957,496.165L349.912,495.356L349.868,494.547L349.825,493.737L349.782,492.927L349.741,492.117L349.7,491.307L349.661,490.496L349.622,489.685L349.584,488.873L349.547,488.062L349.51,487.249L349.475,486.437L349.44,485.624L349.407,484.811L349.374,483.998L349.342,483.184L349.31,482.37L349.28,481.556L349.251,480.741L349.222,479.926L349.194,479.111L349.168,478.295L349.142,477.479L349.116,476.662L349.092,475.845L349.069,475.028L349.046,474.211L349.024,473.393L349.003,472.575L348.983,471.756L348.964,470.937L348.946,470.118L348.928,469.298L348.912,468.478L348.896,467.658L348.881,466.837L348.867,466.016L348.854,465.195L348.842,464.373L348.83,463.551L348.82,462.728L348.81,461.905L348.801,461.082L348.793,460.258L348.786,459.434L348.779,458.61L348.774,457.785L348.769,456.96L348.765,456.134L348.763,455.308L348.76,454.481L348.759,453.655L348.759,452.827L348.759,452L348.761,451.172L348.763,450.475L316.772,462.935L315.798,463.076L314.852,462.767L314.071,462.052L313.571,461.036L313.425,459.868L313.457,458.979L313.489,458.088L313.523,457.196L313.557,456.305L313.592,455.414L313.628,454.523L313.665,453.632L313.703,452.74L313.741,451.849L313.781,450.958L313.821,450.066L313.862,449.175L313.904,448.284L313.947,447.392L313.991,446.501L314.036,445.61L314.081,444.718L314.128,443.827L314.175,442.935L314.223,442.044L314.272,441.152L314.322,440.261L314.373,439.369L314.425,438.478L314.477,437.586L314.531,436.694L314.585,435.803L314.64,434.911L314.696,434.019L314.753,433.128L314.811,432.236L314.87,431.344L314.929,430.453L314.99,429.561L315.051,428.669L315.113,427.777L315.176,426.885L315.24,425.994L315.305,425.102L315.371,424.21L315.437,423.318L315.505,422.426L315.573,421.534L315.643,420.642L315.713,419.75L315.784,418.858L315.856,417.966L315.929,417.074L316.002,416.182L316.077,415.29L316.153,414.398L316.229,413.505L316.306,412.613L316.384,411.721L316.463,410.829L316.543,409.937L316.624,409.044L316.706,408.152L316.789,407.26L316.872,406.368L316.957,405.475L317.042,404.583L317.128,403.691L317.215,402.798L317.304,401.906L317.392,401.013L317.482,400.121L317.573,399.228L317.665,398.336L317.757,397.443L317.851,396.551L317.945,395.658L318.04,394.766L318.136,393.873L318.234,392.981L318.331,392.088L318.43,391.195L318.53,390.303L318.631,389.41L318.732,388.517L318.835,387.625L318.938,386.732L319.043,385.839L319.148,384.946L319.254,384.053L319.361,383.161L319.469,382.268L319.578,381.375L319.688,380.482L319.799,379.589L319.91,378.696L320.023,377.803L320.136,376.91L320.251,376.017L320.366,375.124L320.482,374.231L320.599,373.338L320.717,372.445L320.836,371.552L320.956,370.659L321.077,369.766L321.199,368.873L321.321,367.979L321.445,367.086L321.569,366.193L321.695,365.3L321.821,364.407L321.948,363.513L322.077,362.62L322.206,361.727L322.336,360.833L322.467,359.94L322.599,359.047L322.732,358.153L322.865,357.26L323,356.367L323.136,355.473L323.272,354.58L323.41,353.686L323.548,352.793L323.687,351.899L323.828,351.006L323.969,350.112L324.111,349.218L324.254,348.325L324.398,347.431L324.543,346.538L324.689,345.644L324.836,344.75L324.984,343.856L325.132,342.963L325.282,342.069L325.433,341.175L325.584,340.281L325.737,339.388L325.89,338.494L326.044,337.6L326.2,336.706L326.356,335.812L326.513,334.918L326.671,334.024L326.83,333.13L326.99,332.237L327.151,331.343L327.313,330.449L327.476,329.554L327.64,328.66L327.805,327.766L327.97,326.872L328.137,325.978L328.305,325.084L328.473,324.19L328.643,323.296L328.813,322.402L328.985,321.507L329.157,320.613L329.33,319.719L329.505,318.825L329.68,317.93L329.856,317.036L330.033,316.142L330.211,315.248L330.39,314.353L330.57,313.459L330.751,312.564L330.933,311.67L331.116,310.776L331.3,309.881L331.485,308.987L331.671,308.092L331.858,307.198L332.045,306.303L332.234,305.409L332.424,304.514L332.614,303.619L332.806,302.725L332.998,301.83L333.192,300.935L333.386,300.041L333.582,299.146L333.778,298.251L333.975,297.357L334.174,296.462L334.373,295.567L334.573,294.672L334.775,293.778L334.977,292.883L335.18,291.988L335.384,291.093L335.589,290.198L335.796,289.303L336.003,288.408L336.211,287.513L336.42,286.618L336.63,285.723L336.841,284.828L337.053,283.933L337.266,283.038L337.48,282.143L337.695,281.248L337.91,280.353L338.127,279.458L338.345,278.563L338.564,277.668L338.784,276.773L339.005,275.877L339.226,274.982L339.449,274.087L339.673,273.192L339.898,272.296L340.124,271.401L340.35,270.506L340.578,269.61L340.807,268.715L341.036,267.82L341.267,266.924L341.499,266.029L341.731,265.133L341.965,264.238L342.2,263.343L342.435,262.447L342.672,261.552L342.909,260.656L343.148,259.76L343.388,258.865L343.628,257.969L343.87,257.074L344.112,256.178L344.356,255.282L344.601,254.387L344.846,253.491L345.093,252.595L345.34,251.7L345.589,250.804L345.839,249.908L346.089,249.012L346.341,248.117L346.593,247.221L346.847,246.325L347.101,245.429L347.357,244.533L347.614,243.637L347.871,242.741L348.13,241.846L348.389,240.95L348.65,240.054L348.912,239.158L349.174,238.262L349.438,237.366L349.703,236.47L349.968,235.573L350.235,234.677L350.503,233.781L350.771,232.885L351.041,231.989L351.311,231.095L351.902,229.974L352.829,229.257L353.163,229.108L353.5,228.958L353.838,228.809L354.178,228.659L354.519,228.51L354.861,228.361L355.205,228.212L355.55,228.064L355.896,227.915L356.243,227.767L356.591,227.619L356.941,227.471L357.292,227.323L357.644,227.175L357.998,227.027L358.352,226.88L358.708,226.733L359.065,226.585L359.423,226.438L359.782,226.292L360.142,226.145L360.505,225.998L361.23,225.706L361.961,225.414L362.697,225.123L363.437,224.832L364.181,224.542L364.929,224.253L365.682,223.964L366.438,223.676L367.199,223.388L367.964,223.102L368.733,222.815L369.506,222.53L370.282,222.245L371.063,221.961L371.847,221.678L372.635,221.395L373.426,221.113L374.221,220.831L375.019,220.551L375.821,220.271L376.627,219.991L377.435,219.713L378.247,219.435L379.062,219.158L379.88,218.881L380.701,218.605L381.525,218.33L382.352,218.056L383.182,217.783L384.015,217.51L384.851,217.238L385.689,216.966L386.53,216.696L387.373,216.426L388.219,216.157L389.068,215.888L389.919,215.621L390.772,215.354L391.627,215.088L392.485,214.823L393.345,214.558L394.207,214.294L395.071,214.031L395.937,213.769L396.804,213.508L397.674,213.248L398.546,212.988L399.419,212.729L400.294,212.471L401.17,212.214L402.048,211.957L402.927,211.702L403.808,211.447L404.69,211.193L405.574,210.94L406.459,210.688L407.344,210.437L408.231,210.186L409.119,209.937L410.008,209.688L410.898,209.44L411.789,209.193L412.681,208.947L413.573,208.702L414.466,208.458L415.36,208.215L416.254,207.972L417.148,207.731L418.044,207.49L418.939,207.25L419.835,207.012L420.731,206.774L421.627,206.537L422.523,206.301L423.42,206.066L424.316,205.832L425.212,205.599L426.108,205.367L427.004,205.136L427.9,204.905L428.796,204.676L429.691,204.448L430.585,204.221L431.479,203.994L432.373,203.769L433.266,203.545L434.158,203.322L435.05,203.099L435.94,202.878L436.83,202.658L437.719,202.439L438.607,202.22L439.494,202.003L440.379,201.787L441.264,201.572L442.147,201.358L443.029,201.145L443.91,200.933L444.789,200.723L445.667,200.513L446.543,200.304L447.418,200.097L448.291,199.89L449.162,199.685L450.031,199.481L450.899,199.277L451.764,199.075L452.628,198.874L453.489,198.674L454.349,198.476L455.206,198.278L456.061,198.081L456.914,197.886L457.764,197.692L458.613,197.499L460.301,197.116L461.979,196.738L463.646,196.365L465.302,195.996L466.946,195.632L468.578,195.273L470.196,194.919L471.802,194.57L473.393,194.225L474.97,193.886L476.532,193.551L478.079,193.222L479.61,192.898L481.124,192.578L482.622,192.264L484.102,191.956L485.565,191.652L487.009,191.354L488.434,191.061L489.84,190.773L491.227,190.491L492.593,190.215L493.938,189.943L495.261,189.678L496.563,189.418L497.843,189.163L499.099,188.914L500.333,188.671L501.543,188.434L502.728,188.202L503.889,187.976L505.024,187.757L506.133,187.543L507.217,187.334L508.273,187.132L509.302,186.936L510.304,186.746L511.277,186.562L512.221,186.384L513.136,186.213L514.021,186.047L514.876,185.888L515.701,185.735L517.255,185.449L518.681,185.188L519.973,184.953L521.129,184.745L522.143,184.563L523.013,184.408L523.734,184.281L524.302,184.181L524.714,184.109L525.047,184.052L526.148,184.151ZM525.079,187.162L524.67,187.233L524.105,187.333L523.386,187.46L522.519,187.614L521.507,187.795L520.354,188.003L519.064,188.238L517.641,188.498L516.09,188.784L515.267,188.937L514.413,189.095L513.529,189.26L512.616,189.432L511.673,189.609L510.701,189.793L509.702,189.983L508.674,190.178L507.619,190.38L506.538,190.588L505.43,190.802L504.296,191.021L503.137,191.247L501.954,191.478L500.746,191.715L499.514,191.958L498.259,192.206L496.981,192.46L495.681,192.72L494.359,192.985L493.016,193.256L491.652,193.533L490.268,193.814L488.864,194.101L487.441,194.394L485.999,194.692L484.538,194.995L483.06,195.303L481.565,195.617L480.052,195.935L478.524,196.259L476.979,196.588L475.419,196.922L473.845,197.261L472.256,197.605L470.653,197.954L469.037,198.307L467.408,198.666L465.766,199.029L464.113,199.397L462.449,199.77L460.773,200.147L459.088,200.53L458.241,200.722L457.392,200.916L456.541,201.111L455.687,201.307L454.831,201.505L453.973,201.703L453.113,201.903L452.251,202.103L451.387,202.305L450.521,202.508L449.653,202.712L448.783,202.917L447.912,203.123L447.039,203.33L446.165,203.538L445.288,203.748L444.411,203.958L443.532,204.17L442.651,204.382L441.77,204.596L440.887,204.81L440.003,205.026L439.118,205.243L438.232,205.46L437.345,205.679L436.457,205.899L435.568,206.12L434.678,206.341L433.788,206.564L432.897,206.788L432.005,207.013L431.113,207.239L430.22,207.465L429.327,207.693L428.434,207.922L427.54,208.152L426.646,208.382L425.752,208.614L424.858,208.846L423.963,209.08L423.069,209.314L422.175,209.55L421.281,209.786L420.387,210.023L419.494,210.261L418.6,210.501L417.708,210.741L416.815,210.981L415.923,211.223L415.032,211.466L414.141,211.71L413.252,211.954L412.362,212.199L411.474,212.446L410.587,212.693L409.7,212.941L408.815,213.19L407.93,213.439L407.047,213.69L406.165,213.941L405.284,214.193L404.405,214.447L403.527,214.7L402.65,214.955L401.775,215.211L400.901,215.467L400.029,215.724L399.159,215.982L398.291,216.241L397.424,216.501L396.559,216.761L395.697,217.022L394.836,217.284L393.977,217.547L393.121,217.81L392.266,218.075L391.414,218.34L390.564,218.605L389.717,218.872L388.872,219.139L388.029,219.407L387.189,219.676L386.352,219.945L385.517,220.215L384.686,220.486L383.857,220.758L383.03,221.03L382.207,221.303L381.387,221.577L380.57,221.851L379.756,222.127L378.945,222.402L378.137,222.679L377.333,222.956L376.532,223.234L375.735,223.512L374.941,223.791L374.151,224.071L373.364,224.351L372.581,224.633L371.801,224.914L371.026,225.197L370.254,225.48L369.487,225.763L368.723,226.047L367.963,226.332L367.208,226.618L366.456,226.904L365.709,227.19L364.966,227.477L364.228,227.765L363.494,228.054L362.764,228.343L362.039,228.632L361.319,228.922L360.961,229.067L360.603,229.213L360.247,229.358L359.893,229.504L359.539,229.65L359.186,229.796L358.835,229.942L358.485,230.088L358.136,230.234L357.789,230.381L357.443,230.528L357.098,230.674L356.754,230.821L356.411,230.968L356.07,231.115L355.73,231.263L355.392,231.41L355.054,231.558L354.718,231.705L354.383,231.853L354.05,232.001L353.718,232.149L353.448,233.042L353.18,233.934L352.912,234.827L352.645,235.72L352.38,236.612L352.115,237.505L351.851,238.397L351.589,239.29L351.327,240.183L351.067,241.075L350.807,241.968L350.548,242.86L350.291,243.752L350.034,244.645L349.779,245.537L349.524,246.43L349.27,247.322L349.018,248.214L348.766,249.107L348.516,249.999L348.266,250.891L348.017,251.783L347.77,252.676L347.523,253.568L347.278,254.46L347.033,255.352L346.789,256.244L346.547,257.136L346.305,258.028L346.064,258.921L345.825,259.813L345.586,260.705L345.348,261.597L345.112,262.489L344.876,263.381L344.641,264.272L344.408,265.164L344.175,266.056L343.943,266.948L343.713,267.84L343.483,268.732L343.254,269.624L343.026,270.515L342.799,271.407L342.574,272.299L342.349,273.191L342.125,274.082L341.902,274.974L341.68,275.866L341.459,276.757L341.239,277.649L341.02,278.541L340.802,279.432L340.585,280.324L340.369,281.215L340.154,282.107L339.94,282.998L339.727,283.89L339.515,284.781L339.304,285.673L339.094,286.564L338.885,287.455L338.676,288.347L338.469,289.238L338.263,290.129L338.058,291.021L337.853,291.912L337.65,292.803L337.448,293.695L337.246,294.586L337.046,295.477L336.846,296.368L336.648,297.259L336.45,298.15L336.254,299.041L336.058,299.933L335.863,300.824L335.67,301.715L335.477,302.606L335.285,303.497L335.094,304.388L334.905,305.279L334.716,306.17L334.528,307.061L334.341,307.951L334.155,308.842L333.97,309.733L333.786,310.624L333.603,311.515L333.42,312.406L333.239,313.296L333.059,314.187L332.88,315.078L332.701,315.969L332.524,316.859L332.348,317.75L332.172,318.641L331.998,319.531L331.824,320.422L331.651,321.312L331.48,322.203L331.309,323.094L331.139,323.984L330.97,324.875L330.803,325.765L330.636,326.656L330.47,327.546L330.305,328.436L330.141,329.327L329.977,330.217L329.815,331.108L329.654,331.998L329.494,332.888L329.334,333.779L329.176,334.669L329.018,335.559L328.862,336.449L328.706,337.34L328.551,338.23L328.398,339.12L328.245,340.01L328.093,340.9L327.942,341.79L327.792,342.681L327.643,343.571L327.495,344.461L327.348,345.351L327.202,346.241L327.056,347.131L326.912,348.021L326.769,348.911L326.626,349.801L326.485,350.69L326.344,351.58L326.204,352.47L326.065,353.36L325.928,354.25L325.791,355.14L325.655,356.03L325.52,356.919L325.385,357.809L325.252,358.699L325.12,359.589L324.989,360.478L324.858,361.368L324.729,362.258L324.6,363.147L324.472,364.037L324.346,364.926L324.22,365.816L324.095,366.706L323.971,367.595L323.848,368.485L323.726,369.374L323.604,370.264L323.484,371.153L323.365,372.042L323.246,372.932L323.129,373.821L323.012,374.711L322.896,375.6L322.781,376.489L322.667,377.379L322.554,378.268L322.442,379.157L322.331,380.046L322.221,380.936L322.112,381.825L322.003,382.714L321.896,383.603L321.789,384.492L321.683,385.382L321.578,386.271L321.475,387.16L321.372,388.049L321.27,388.938L321.168,389.827L321.068,390.716L320.969,391.605L320.87,392.494L320.773,393.383L320.676,394.272L320.58,395.161L320.485,396.05L320.391,396.939L320.298,397.827L320.206,398.716L320.115,399.605L320.024,400.494L319.935,401.383L319.846,402.271L319.759,403.16L319.672,404.049L319.586,404.938L319.501,405.826L319.417,406.715L319.334,407.604L319.251,408.492L319.17,409.381L319.089,410.269L319.01,411.158L318.931,412.047L318.853,412.935L318.776,413.824L318.7,414.712L318.625,415.601L318.551,416.489L318.477,417.377L318.405,418.266L318.333,419.154L318.262,420.043L318.192,420.931L318.123,421.819L318.055,422.708L317.988,423.596L317.922,424.484L317.856,425.373L317.792,426.261L317.728,427.149L317.665,428.037L317.603,428.925L317.542,429.814L317.482,430.702L317.423,431.59L317.364,432.478L317.306,433.366L317.25,434.254L317.194,435.142L317.139,436.03L317.085,436.918L317.032,437.806L316.979,438.694L316.928,439.582L316.877,440.47L316.828,441.358L316.779,442.246L316.731,443.134L316.684,444.022L316.637,444.91L316.592,445.797L316.548,446.685L316.504,447.573L316.461,448.461L316.419,449.348L316.378,450.236L316.338,451.124L316.299,452.012L316.26,452.899L316.223,453.787L316.186,454.675L316.15,455.562L316.115,456.45L316.081,457.337L316.048,458.225L316.015,459.112L315.984,460L351.348,446.226L351.341,447.053L351.336,447.879L351.331,448.705L351.327,449.53L351.324,450.355L351.322,451.18L351.32,452.004L351.32,452.828L351.32,453.651L351.321,454.474L351.324,455.297L351.326,456.119L351.33,456.941L351.335,457.762L351.34,458.583L351.347,459.404L351.354,460.224L351.362,461.044L351.371,461.863L351.38,462.682L351.391,463.501L351.402,464.319L351.415,465.137L351.428,465.955L351.442,466.772L351.456,467.589L351.472,468.405L351.489,469.221L351.506,470.037L351.524,470.852L351.543,471.667L351.563,472.482L351.584,473.296L351.606,474.11L351.628,474.924L351.651,475.737L351.676,476.55L351.701,477.362L351.727,478.175L351.753,478.986L351.781,479.798L351.809,480.609L351.839,481.42L351.869,482.23L351.9,483.04L351.932,483.85L351.964,484.659L351.998,485.468L352.032,486.277L352.068,487.086L352.104,487.894L352.141,488.702L352.179,489.509L352.217,490.316L352.257,491.123L352.297,491.929L352.338,492.736L352.38,493.541L352.423,494.347L352.467,495.152L352.512,495.957L352.557,496.762L352.604,497.566L352.651,498.37L352.699,499.174L352.748,499.977L352.798,500.78L352.848,501.583L352.9,502.385L352.952,503.188L353.005,503.989L353.059,504.791L353.114,505.592L353.17,506.393L353.226,507.194L353.284,507.994L353.342,508.795L353.401,509.595L353.461,510.394L353.522,511.193L353.584,511.993L353.647,512.791L353.71,513.59L353.774,514.388L353.839,515.186L353.905,515.984L353.972,516.781L354.04,517.578L354.108,518.375L354.178,519.172L354.248,519.968L354.319,520.764L354.391,521.56L354.464,522.356L354.538,523.151L354.612,523.946L354.688,524.741L354.764,525.536L354.841,526.33L354.919,527.124L354.998,527.918L355.077,528.712L355.158,529.505L355.239,530.298L355.321,531.091L355.404,531.884L355.488,532.676L355.573,533.468L355.659,534.26L355.745,535.052L355.833,535.844L355.921,536.635L356.01,537.426L356.1,538.217L356.19,539.008L356.282,539.798L356.375,540.588L356.468,541.378L356.562,542.168L356.657,542.958L356.753,543.747L356.85,544.536L356.947,545.325L357.046,546.114L357.145,546.902L357.245,547.691L357.346,548.479L357.448,549.267L357.551,550.055L357.655,550.842L357.759,551.63L357.864,552.417L357.97,553.204L358.077,553.991L358.185,554.777L358.294,555.564L358.404,556.35L358.514,557.136L358.625,557.922L358.738,558.708L358.851,559.493L358.964,560.279L359.079,561.064L359.195,561.849L359.311,562.634L359.428,563.419L359.547,564.203L359.666,564.988L359.785,565.772L359.906,566.556L360.028,567.34L360.15,568.124L360.273,568.907L360.398,569.691L360.523,570.474L360.648,571.257L360.775,572.04L360.903,572.823L361.031,573.606L361.16,574.388L361.291,575.171L361.422,575.953L361.553,576.735L361.686,577.517L361.82,578.299L361.954,579.081L362.089,579.863L362.226,580.644L362.363,581.426L362.5,582.207L362.639,582.988L362.779,583.769L362.919,584.55L363.06,585.331L363.203,586.112L363.346,586.892L363.489,587.673L363.634,588.453L363.78,589.233L363.926,590.013L364.073,590.793L364.222,591.573L364.371,592.353L364.52,593.133L364.671,593.912L364.823,594.692L364.975,595.471L365.128,596.251L365.283,597.03L365.438,597.809L365.594,598.588L365.75,599.367L365.908,600.146L366.066,600.925L366.226,601.703L366.386,602.482L366.547,603.261L366.709,604.039L366.871,604.818L367.035,605.596L367.199,606.374L367.365,607.152L367.531,607.931L367.698,608.709L367.866,609.487L368.035,610.265L368.204,611.043L368.375,611.82L368.546,612.598L368.718,613.376L368.891,614.153L369.065,614.931L369.24,615.709L369.415,616.486L369.592,617.264L369.769,618.041L369.947,618.818L370.126,619.596L370.306,620.373L370.487,621.15L370.669,621.928L370.851,622.705L371.035,623.482L371.219,624.259L371.404,625.036L371.59,625.813L371.777,626.59L371.964,627.367L372.153,628.144L372.342,628.921L372.532,629.698L372.723,630.475L372.915,631.252L373.108,632.029L373.302,632.806L373.496,633.583L373.692,634.359L373.888,635.136L374.085,635.913L374.283,636.69L374.482,637.467L374.682,638.244L374.882,639.021L375.084,639.797L375.286,640.574L375.489,641.351L375.693,642.128L375.898,642.905L376.104,643.682L376.31,644.459L376.518,645.236L376.726,646.013L376.935,646.79L377.145,647.567L377.356,648.344L377.568,649.121L408.017,635.261L408.084,635.709L408.151,636.157L408.219,636.604L408.287,637.051L408.356,637.499L408.426,637.946L408.496,638.393L408.566,638.84L408.637,639.286L408.709,639.733L408.781,640.179L408.853,640.626L408.926,641.072L409,641.518L409.074,641.963L409.148,642.409L409.224,642.855L409.299,643.3L409.375,643.745L409.452,644.191L409.529,644.636L409.607,645.08L409.685,645.525L409.764,645.97L409.843,646.414L409.922,646.859L410.002,647.303L410.083,647.747L410.164,648.191L410.246,648.634L410.328,649.078L410.411,649.522L410.494,649.965L410.577,650.408L410.662,650.851L410.746,651.294L410.831,651.737L410.917,652.18L411.003,652.622L411.09,653.065L411.177,653.507L411.264,653.949L411.352,654.391L411.441,654.833L411.53,655.275L411.619,655.716L411.709,656.158L411.8,656.599L411.89,657.04L411.982,657.481L412.074,657.922L412.166,658.363L412.259,658.804L412.352,659.244L412.446,659.685L412.54,660.125L412.635,660.565L412.73,661.005L412.826,661.445L412.922,661.885L413.115,662.764L413.311,663.643L413.508,664.521L413.708,665.399L413.909,666.276L414.111,667.153L414.316,668.029L414.523,668.904L414.731,669.78L414.941,670.654L415.153,671.528L415.367,672.402L415.582,673.275L415.8,674.148L416.019,675.02L416.239,675.892L416.462,676.763L416.686,677.634L416.912,678.504L417.14,679.374L417.369,680.243L417.601,681.112L417.833,681.981L418.068,682.849L418.304,683.716L418.542,684.583L418.782,685.45L419.023,686.316L419.266,687.182L419.51,688.047L419.756,688.912L420.004,689.776L420.254,690.64L420.505,691.503L420.757,692.366L421.012,693.229L421.268,694.091L421.525,694.952L421.784,695.814L422.045,696.674L422.307,697.535L422.571,698.395L422.836,699.254L423.103,700.113L423.371,700.972L423.641,701.83L423.912,702.688L424.185,703.546L424.459,704.403L424.735,705.259L425.013,706.115L425.292,706.971L425.572,707.827L425.854,708.682L426.137,709.536L426.422,710.39L426.708,711.244L426.995,712.098L427.284,712.951L427.575,713.803L427.866,714.655L428.16,715.507L428.454,716.359L428.75,717.21L429.048,718.061L429.346,718.911L429.646,719.761L429.948,720.61L430.251,721.46L430.555,722.308L430.86,723.157L431.167,724.005L431.475,724.853L431.785,725.7L432.095,726.547L432.407,727.394L432.721,728.24L433.035,729.086L433.351,729.932L433.668,730.777L433.987,731.622L434.306,732.467L434.627,733.311L434.949,734.155L435.272,734.998L435.597,735.842L435.923,736.684L436.25,737.527L436.578,738.369L436.907,739.211L437.238,740.053L437.569,740.894L437.902,741.735L438.236,742.576L438.571,743.416L438.908,744.256L439.245,745.096L439.583,745.935L439.923,746.774L440.264,747.613L440.606,748.452L440.949,749.29L441.293,750.128L441.638,750.965L441.984,751.802L442.331,752.639L442.68,753.476L443.029,754.313L443.379,755.149L443.731,755.985L444.083,756.82L444.437,757.655L444.791,758.49L445.147,759.325L445.503,760.16L445.861,760.994L446.219,761.828L446.579,762.661L446.939,763.495L447.3,764.328L447.663,765.161L448.026,765.993L448.39,766.826L448.755,767.658L449.121,768.49L449.488,769.321L449.856,770.153L450.224,770.984L450.594,771.815L450.964,772.645L451.336,773.476L451.708,774.306L452.081,775.136L452.455,775.966L452.83,776.795L453.205,777.624L453.582,778.453L453.959,779.282L454.337,780.111L454.716,780.939L455.095,781.767L455.476,782.595L455.857,783.423L456.239,784.25L456.622,785.077L457.005,785.904L457.389,786.731L457.774,787.558L458.16,788.384L458.546,789.21L458.933,790.037L459.321,790.862L459.71,791.688L460.099,792.514L460.489,793.339L460.88,794.164L461.271,794.989L461.663,795.814L462.055,796.638L462.449,797.462L462.843,798.287L463.237,799.111L463.632,799.935L464.028,800.758L464.424,801.582L464.821,802.405L465.219,803.228L465.617,804.051L466.016,804.874L466.415,805.697L466.815,806.519L467.215,807.342L467.616,808.164L468.018,808.986L468.42,809.808L468.822,810.63L469.225,811.452L469.629,812.273L470.033,813.094L470.438,813.916L471.248,815.558L472.061,817.199L472.875,818.841L473.691,820.481L474.509,822.121L475.329,823.761L476.15,825.4L476.972,827.039L477.796,828.678L478.621,830.316L479.448,831.953L480.276,833.591L481.105,835.228L481.936,836.864L482.767,838.501L483.599,840.137L484.433,841.773L485.267,843.408L486.102,845.044L486.938,846.679L487.775,848.314L488.612,849.949L489.45,851.583L489.313,850.387L489.176,849.191L489.04,847.994L488.905,846.798L488.77,845.601L488.636,844.404L488.502,843.207L488.369,842.01L488.236,840.813L488.104,839.616L487.973,838.418L487.842,837.221L487.712,836.023L487.582,834.826L487.453,833.628L487.325,832.43L487.197,831.232L487.07,830.034L486.943,828.836L486.817,827.637L486.692,826.439L486.568,825.24L486.444,824.042L486.32,822.843L486.198,821.644L486.076,820.445L485.955,819.246L485.834,818.046L485.715,816.847L485.595,815.647L485.477,814.448L485.359,813.248L485.242,812.048L485.126,810.848L485.011,809.648L484.896,808.448L484.782,807.247L484.669,806.047L484.556,804.846L484.445,803.645L484.334,802.444L484.223,801.243L484.114,800.042L484.006,798.841L483.898,797.639L483.791,796.438L483.685,795.236L483.579,794.034L483.475,792.832L483.371,791.63L483.268,790.428L483.166,789.226L483.065,788.023L482.965,786.821L482.866,785.618L482.767,784.415L482.669,783.212L482.573,782.009L482.477,780.805L482.382,779.602L482.288,778.398L482.195,777.195L482.102,775.991L482.011,774.787L481.921,773.583L481.831,772.378L481.742,771.174L481.655,769.969L481.568,768.764L481.483,767.559L481.398,766.354L481.314,765.149L481.231,763.944L481.15,762.738L481.069,761.533L480.989,760.327L480.91,759.121L480.832,757.915L480.756,756.709L480.68,755.502L480.605,754.296L480.531,753.089L480.459,751.882L480.387,750.675L480.317,749.468L480.247,748.26L480.179,747.053L480.111,745.845L480.045,744.637L479.98,743.429L479.916,742.221L479.853,741.013L479.791,739.804L479.73,738.596L479.671,737.387L479.612,736.178L479.555,734.969L479.498,733.76L479.443,732.55L479.389,731.34L479.336,730.131L479.285,728.921L479.234,727.711L479.185,726.5L479.137,725.29L479.09,724.079L479.044,722.868L479,721.657L478.956,720.446L478.914,719.235L478.873,718.023L478.833,716.812L478.795,715.6L478.758,714.388L478.722,713.175L478.687,711.963L478.654,710.75L478.621,709.538L478.59,708.325L478.561,707.112L478.532,705.898L478.505,704.685L478.479,703.471L478.455,702.257L478.432,701.043L478.41,699.829L478.389,698.615L478.37,697.4L478.352,696.185L478.336,694.97L478.32,693.755L478.307,692.54L478.294,691.324L478.283,690.109L478.273,688.893L478.265,687.677L478.258,686.46L478.252,685.244L478.248,684.027L478.245,682.81L478.244,681.593L478.244,680.376L478.245,679.159L478.248,677.941L478.252,676.723L478.258,675.505L478.265,674.287L478.274,673.068L478.284,671.85L478.295,670.631L478.308,669.412L478.323,668.193L478.339,666.973L478.356,665.754L478.375,664.534L478.395,663.314L478.417,662.093L478.441,660.873L478.466,659.652L478.492,658.431L478.521,657.21L478.55,655.989L478.581,654.768L478.614,653.546L478.648,652.324L478.684,651.102L478.722,649.88L478.761,648.657L478.801,647.434L478.843,646.211L478.887,644.988L478.932,643.765L478.979,642.541L479.028,641.317L479.078,640.093L479.13,638.869L479.184,637.644L479.239,636.42L479.296,635.195L479.354,633.97L479.414,632.744L479.476,631.519L479.539,630.293L479.604,629.067L479.671,627.84L479.74,626.614L479.81,625.387L479.882,624.16L479.955,622.933L480.031,621.706L480.108,620.478L480.187,619.25L480.267,618.022L480.349,616.794L480.434,615.565L480.519,614.337L480.607,613.108L480.696,611.878L480.787,610.649L480.88,609.419L480.975,608.189L481.071,606.959L481.169,605.729L481.27,604.498L481.371,603.267L481.475,602.036L481.581,600.805L481.688,599.573L481.797,598.342L481.908,597.109L482.021,595.877L482.136,594.645L482.253,593.412L482.371,592.179L482.491,590.946L482.614,589.712L482.738,588.478L482.864,587.244L482.992,586.01L483.122,584.776L483.253,583.541L483.387,582.306L483.523,581.071L483.66,579.835L483.8,578.599L483.941,577.363L484.084,576.127L484.23,574.891L484.377,573.654L484.451,573.035L484.526,572.417L484.602,571.798L484.678,571.18L484.754,570.561L484.831,569.942L484.908,569.323L484.986,568.704L485.064,568.085L485.143,567.466L485.223,566.847L485.302,566.228L485.383,565.609L485.464,564.99L485.545,564.37L485.627,563.751L485.709,563.131L485.792,562.512L485.876,561.892L485.96,561.272L486.044,560.653L486.129,560.033L486.214,559.413L486.3,558.793L486.387,558.173L486.474,557.553L486.561,556.933L486.649,556.313L486.738,555.692L486.827,555.072L486.916,554.452L487.006,553.831L487.097,553.211L487.188,552.59L487.28,551.969L487.372,551.349L487.464,550.728L487.558,550.107L487.651,549.486L487.746,548.865L487.84,548.244L487.936,547.623L488.031,547.002L488.128,546.38L488.225,545.759L488.322,545.138L488.42,544.516L488.518,543.895L488.617,543.273L488.717,542.651L488.817,542.03L488.917,541.408L489.019,540.786L489.12,540.164L460,555.952L459.983,555.543L459.966,555.133L459.95,554.724L459.934,554.314L459.919,553.904L459.905,553.494L459.891,553.084L459.877,552.674L459.864,552.264L459.852,551.854L459.84,551.444L459.828,551.034L459.817,550.623L459.807,550.213L459.797,549.803L459.787,549.392L459.778,548.981L459.77,548.571L459.762,548.16L459.755,547.749L459.748,547.338L459.742,546.927L459.736,546.516L459.731,546.105L459.726,545.694L459.721,545.283L459.718,544.872L459.714,544.46L459.712,544.049L459.709,543.637L459.708,543.226L459.706,542.814L459.706,542.402L459.706,541.991L459.706,541.579L459.707,541.167L459.708,540.755L459.71,540.343L459.712,539.931L459.715,539.519L459.718,539.106L459.722,538.694L459.727,538.282L459.732,537.869L459.737,537.457L459.743,537.044L459.749,536.631L459.756,536.219L459.764,535.806L459.771,535.393L459.78,534.98L459.789,534.567L459.798,534.154L459.808,533.741L459.819,533.328L459.83,532.914L459.841,532.501L459.853,532.088L459.865,531.674L459.878,531.261L459.892,530.847L459.906,530.433L459.92,530.019L459.935,529.606L459.951,529.192L459.967,528.778L459.983,528.364L460,527.95L460.018,527.536L460.036,527.121L460.054,526.707L460.073,526.293L460.093,525.878L460.113,525.464L460.133,525.049L460.154,524.634L460.176,524.22L460.197,523.805L460.22,523.39L460.243,522.975L460.266,522.56L460.29,522.145L460.315,521.73L460.34,521.315L460.365,520.9L460.391,520.484L460.418,520.069L460.445,519.654L460.472,519.238L460.5,518.822L460.528,518.407L460.557,517.991L460.587,517.575L460.617,517.159L460.647,516.744L460.678,516.328L460.709,515.912L460.741,515.495L460.774,515.079L460.806,514.663L460.84,514.247L460.874,513.83L460.908,513.414L460.943,512.997L460.978,512.581L461.014,512.164L461.05,511.747L461.087,511.331L461.124,510.914L461.162,510.497L461.2,510.08L461.239,509.663L461.318,508.828L461.399,507.994L461.482,507.159L461.567,506.324L461.654,505.488L461.742,504.653L461.833,503.817L461.926,502.981L462.02,502.144L462.117,501.308L462.215,500.471L462.316,499.633L462.418,498.796L462.522,497.958L462.628,497.12L462.736,496.282L462.846,495.443L462.958,494.604L463.072,493.765L463.188,492.926L463.306,492.086L463.425,491.247L463.547,490.406L463.67,489.566L463.796,488.725L463.923,487.884L464.052,487.043L464.183,486.202L464.316,485.36L464.451,484.518L464.587,483.676L464.726,482.833L464.867,481.991L465.009,481.148L465.153,480.304L465.299,479.461L465.447,478.617L465.597,477.773L465.749,476.929L465.903,476.084L466.058,475.239L466.216,474.394L466.375,473.549L466.536,472.704L466.699,471.858L466.864,471.012L467.031,470.165L467.199,469.319L467.37,468.472L467.542,467.625L467.716,466.777L467.892,465.93L468.07,465.082L468.25,464.234L468.431,463.385L468.615,462.536L468.8,461.688L468.987,460.838L469.176,459.989L469.367,459.139L469.559,458.289L469.753,457.439L469.95,456.589L470.148,455.738L470.348,454.887L470.549,454.036L470.753,453.184L470.958,452.333L471.165,451.481L471.374,450.629L471.585,449.776L471.797,448.923L472.012,448.07L472.228,447.217L472.446,446.364L472.666,445.51L472.887,444.656L473.111,443.802L473.336,442.947L473.563,442.093L473.791,441.238L474.022,440.382L474.254,439.527L474.488,438.671L474.724,437.815L474.962,436.959L475.201,436.102L475.442,435.246L475.685,434.389L475.93,433.532L476.177,432.674L476.425,431.816L476.675,430.958L476.927,430.1L477.18,429.242L477.436,428.383L477.693,427.524L477.951,426.665L478.212,425.806L478.474,424.946L478.738,424.086L479.004,423.226L479.272,422.365L479.541,421.505L479.812,420.644L480.085,419.783L480.359,418.921L480.636,418.06L480.914,417.198L481.193,416.336L481.475,415.473L481.758,414.611L482.043,413.748L482.329,412.885L482.618,412.021L482.908,411.158L483.199,410.294L483.493,409.43L483.788,408.565L484.085,407.701L484.383,406.836L484.684,405.971L484.986,405.106L485.289,404.24L485.595,403.374L485.902,402.508L486.211,401.642L486.521,400.776L486.833,399.909L487.147,399.042L487.462,398.175L487.78,397.307L488.098,396.44L488.419,395.572L488.741,394.704L489.065,393.835L489.391,392.967L489.718,392.098L490.047,391.229L490.377,390.359L490.71,389.49L491.044,388.62L491.379,387.75L491.716,386.88L492.055,386.009L492.396,385.138L492.738,384.267L493.082,383.396L493.427,382.525L493.774,381.653L494.123,380.781L494.473,379.909L494.825,379.036L495.179,378.164L495.534,377.291L495.891,376.418L496.25,375.544L496.61,374.671L496.972,373.797L497.335,372.923L497.7,372.049L498.067,371.174L498.435,370.299L498.805,369.424L499.177,368.549L499.55,367.674L499.924,366.798L500.301,365.922L500.679,365.046L501.058,364.17L501.439,363.293L501.822,362.416L502.207,361.539L502.592,360.662L502.98,359.784L503.369,358.906L503.76,358.028L504.152,357.15L504.546,356.272L504.941,355.393L505.338,354.514L505.737,353.635L506.137,352.756L506.539,351.876L506.942,350.996L507.347,350.116L507.754,349.236L508.162,348.356L508.571,347.475L508.982,346.594L509.395,345.713L509.809,344.831L510.225,343.95L510.643,343.068L511.062,342.186L511.482,341.303L511.904,340.421L512.328,339.538L512.753,338.655L513.179,337.772L472.027,347.527L472.035,347.401L472.043,347.27L472.052,347.134L472.062,346.993L472.073,346.847L472.085,346.696L472.098,346.54L472.112,346.379L472.127,346.213L472.143,346.043L472.16,345.867L472.178,345.686L472.197,345.501L472.217,345.311L472.237,345.116L472.259,344.917L472.282,344.712L472.306,344.503L472.332,344.29L472.358,344.071L472.385,343.848L472.413,343.621L472.443,343.389L472.473,343.152L472.505,342.911L472.537,342.666L472.571,342.416L472.606,342.161L472.642,341.902L472.679,341.639L472.718,341.372L472.757,341.1L472.798,340.824L472.84,340.543L472.883,340.258L472.927,339.97L472.972,339.676L473.019,339.379L473.067,339.078L473.116,338.772L473.166,338.462L473.218,338.149L473.271,337.831L473.325,337.509L473.38,337.184L473.436,336.854L473.494,336.52L473.553,336.183L473.614,335.841L473.676,335.496L473.739,335.147L473.803,334.794L473.869,334.437L473.936,334.077L474.004,333.713L474.074,333.345L474.145,332.973L474.217,332.598L474.291,332.219L474.366,331.837L474.443,331.451L474.521,331.061L474.6,330.668L474.681,330.271L474.763,329.871L474.847,329.468L474.932,329.061L475.019,328.651L475.107,328.237L475.196,327.82L475.287,327.4L475.379,326.976L475.473,326.55L475.569,326.119L475.666,325.686L475.764,325.25L475.864,324.81L475.965,324.367L476.068,323.922L476.173,323.473L476.279,323.021L476.387,322.566L476.496,322.108L476.607,321.647L476.719,321.183L476.833,320.716L476.948,320.246L477.066,319.774L477.184,319.298L477.305,318.82L477.427,318.339L477.551,317.855L477.676,317.368L477.803,316.879L477.931,316.387L478.062,315.892L478.194,315.395L478.327,314.895L478.463,314.393L478.6,313.888L478.739,313.38L478.879,312.87L479.021,312.357L479.165,311.842L479.311,311.325L479.459,310.805L479.608,310.283L479.759,309.758L479.912,309.231L480.066,308.702L480.223,308.171L480.381,307.637L480.541,307.101L480.702,306.563L480.866,306.023L481.031,305.48L481.199,304.935L481.368,304.389L481.539,303.84L481.712,303.289L481.886,302.736L482.063,302.182L482.241,301.625L482.422,301.066L482.604,300.506L482.788,299.943L482.974,299.379L483.162,298.813L483.535,297.698L483.911,296.577L484.291,295.451L484.675,294.319L485.062,293.182L485.452,292.039L485.846,290.893L486.242,289.741L486.642,288.585L487.045,287.425L487.451,286.262L487.859,285.094L488.27,283.924L488.683,282.75L489.099,281.573L489.517,280.394L489.938,279.212L490.36,278.028L490.784,276.842L491.211,275.654L491.639,274.464L492.068,273.274L492.5,272.082L492.932,270.889L493.367,269.696L493.802,268.503L494.238,267.309L494.676,266.115L495.114,264.922L495.553,263.729L495.993,262.537L496.434,261.347L496.875,260.157L497.316,258.969L497.758,257.783L498.2,256.598L498.642,255.416L499.084,254.236L499.526,253.059L499.967,251.885L500.408,250.713L500.849,249.546L501.289,248.381L501.729,247.221L502.168,246.065L502.606,244.912L503.042,243.765L503.478,242.622L503.913,241.484L504.346,240.351L504.778,239.224L505.208,238.103L505.637,236.987L506.064,235.877L506.489,234.774L506.913,233.678L507.334,232.588L507.753,231.505L508.17,230.43L508.584,229.362L508.996,228.302L509.405,227.25L510.216,225.17L511.015,223.126L511.801,221.118L512.575,219.148L513.334,217.219L514.078,215.332L514.807,213.489L515.518,211.692L516.212,209.942L516.888,208.243L517.545,206.594L518.181,204.999L518.797,203.459L519.391,201.976L519.962,200.552L520.51,199.189L521.033,197.888L521.532,196.652L522.004,195.482L522.45,194.381L522.867,193.349L523.257,192.389L523.616,191.503L524.245,189.959L524.745,188.732L525.111,187.838L525.412,187.105L525.079,187.162Z" style="fill:rgb(237,119,32);"/>
    </g>
</svg>
